<?xml version="1.0" encoding="UTF-8"?>
<svg id="Layer_2" data-name="Layer 2" xmlns="http://www.w3.org/2000/svg" viewBox="0 0 1038.67 236.56">
  <defs>
    <style>
      .cls-1 {
        fill: #e20613;
      }

      .cls-2 {
        fill: #1d1d1b;
        fill-rule: evenodd;
      }

      .cls-3 {
        fill: #f2f2f2;
      }
    </style>
  </defs>
  <g id="Layer_1-2" data-name="Layer 1">
    <g>
      <g>
        <path class="cls-1" d="m118.28,0C52.96,0,0,52.96,0,118.28s52.96,118.28,118.28,118.28,118.27-52.96,118.27-118.28S183.6,0,118.28,0Zm.57,196.44c-43.39,0-78.57-35.18-78.57-78.57S75.46,39.29,118.86,39.29s78.57,35.18,78.57,78.58-35.18,78.57-78.57,78.57Z"/>
        <path class="cls-3" d="m118.34,162.53c-24.43,0-44.24-19.81-44.24-44.24s19.81-44.24,44.24-44.24,44.24,19.81,44.24,44.24-19.81,44.24-44.24,44.24Z"/>
        <path class="cls-1" d="m118.34,74.05c-24.43,0-44.24,19.81-44.24,44.24s19.81,44.24,44.24,44.24,44.24-19.81,44.24-44.24-19.81-44.24-44.24-44.24Z"/>
      </g>
      <g>
        <path class="cls-2" d="m727.13,56.94h17.85c67.55,5,69.54,116.89,1.2,123.63h-19.05c-21.34-4.41-38.13-15.51-46.34-33.28-17.99-38.85,4.31-84.19,46.34-90.35Zm-1.19,95.09c47.76,16.65,51.95-78.65,2.37-66.59-26.06,6.37-26.06,58.34-2.37,66.59Z"/>
        <path class="cls-2" d="m272.93,59.32c49.33,0,77.25-4.18,112.96,3.6,24.36,5.25,10.46,74.49,16.66,115.34-10.32-.81-23.79,1.54-32.11-1.19,0-28.26.15-64.33-.53-86.8-16.3-5.08-44.73-1.12-64.88-2.39v90.38h-32.09V59.32Z"/>
        <path class="cls-2" d="m466.76,178.22v-73.72h32.1v45.17c41.04,6.85,47.07-50.94,16.64-60.64-14.18-4.53-29.37.9-48.74-1.19.78-9.11-1.59-21.42,1.16-28.57,56.35-5.59,97.08,8.09,101.08,53.52,4.42,50.22-40.59,74.01-102.23,65.42Z"/>
        <path class="cls-2" d="m614.19,133c-2.78,12.74-.41,30.52-1.19,45.21h-32.1v-73.72c17.11-2.69,53.16,7.32,51.12-9.52-1.69-14.28-34.43-3.99-51.12-7.14v-28.57c43.11-1.45,85.55-3.23,85.62,36.9,0,21.15-16.45,40.89-52.32,36.83Z"/>
        <path class="cls-2" d="m809.17,59.27h32.1v28.57h-32.1v-28.57Z"/>
        <path class="cls-2" d="m949.5,178.22h-33.27c-.79-28.59,1.49-60.21-1.2-86.8-4.56-5.76-17.73-2.93-27.34-3.57v90.38h-32.09c.77-39.28-1.6-81.67,1.17-118.94,33.87,3.25,71.78-8.66,86.8,13.13,16.09,23.33.23,68.59,5.95,105.81Z"/>
        <path class="cls-2" d="m1038.67,59.27v28.57h-77.29c.79-9.11-1.56-21.42,1.2-28.57h76.1Z"/>
        <path class="cls-2" d="m352.6,104.55v73.72h-29.74v-73.72h29.74Z"/>
        <path class="cls-2" d="m841.27,104.49v73.72h-32.1v-73.72h32.1Z"/>
        <path class="cls-2" d="m999.44,104.49c1,14.02-2.35,32.44,2.38,42.79,7.22,4.26,21.31,1.65,32.09,2.38v28.55c-57.95,9.15-73.51-16.83-66.6-73.72h32.12Z"/>
        <path class="cls-2" d="m417.15,59.77h32.1v28.57h-32.1v-28.57Z"/>
        <path class="cls-2" d="m449.25,104.99v73.72h-32.1v-73.72h32.1Z"/>
      </g>
    </g>
  </g>
</svg>