<?xml version="1.0" encoding="UTF-8"?>
<svg id="Layer_2" data-name="Layer 2" xmlns="http://www.w3.org/2000/svg" viewBox="0 0 811.12 811.14">
  <defs>
    <style>
      .cls-1 {
        fill: #fff;
      }
    </style>
  </defs>
  <g id="Layer_1-2" data-name="Layer 1">
    <g>
      <path class="cls-1" d="m405.57,0C181.58,0,0,181.58,0,405.57s181.58,405.57,405.57,405.57,405.55-181.58,405.55-405.57S629.55,0,405.57,0Zm1.97,673.56c-148.8,0-269.42-120.62-269.42-269.42s120.63-269.43,269.42-269.43,269.42,120.63,269.42,269.43-120.62,269.42-269.42,269.42Z"/>
      <path class="cls-1" d="m405.78,557.31c-83.78,0-151.7-67.92-151.7-151.7s67.92-151.7,151.7-151.7,151.69,67.92,151.69,151.7-67.92,151.7-151.69,151.7Z"/>
      <path class="cls-1" d="m405.78,253.91c-83.78,0-151.7,67.92-151.7,151.7s67.92,151.7,151.7,151.7,151.69-67.92,151.69-151.7-67.92-151.7-151.69-151.7Z"/>
    </g>
  </g>
</svg>