<?xml version="1.0" encoding="UTF-8"?>
<svg id="Layer_2" data-name="Layer 2" xmlns="http://www.w3.org/2000/svg" viewBox="0 0 617.72 617.73">
  <defs>
    <style>
      .cls-1 {
        fill: #e20613;
      }

      .cls-2 {
        fill: #f2f2f2;
      }
    </style>
  </defs>
  <g id="Layer_1-2" data-name="Layer 1">
    <g>
      <path class="cls-1" d="m308.87,0C138.29,0,0,138.29,0,308.87s138.29,308.86,308.87,308.86,308.85-138.28,308.85-308.86S479.44,0,308.87,0Zm1.5,512.96c-113.32,0-205.18-91.86-205.18-205.18s91.86-205.19,205.18-205.19,205.18,91.87,205.18,205.19-91.86,205.18-205.18,205.18Z"/>
      <path class="cls-2" d="m309.02,424.42c-63.8,0-115.53-51.72-115.53-115.53s51.72-115.53,115.53-115.53,115.52,51.72,115.52,115.53-51.72,115.53-115.52,115.53Z"/>
      <path class="cls-1" d="m309.02,193.37c-63.8,0-115.53,51.72-115.53,115.53s51.72,115.53,115.53,115.53,115.52-51.72,115.52-115.53-51.72-115.53-115.52-115.53Z"/>
    </g>
  </g>
</svg>